# Blender v2.77 (sub 0) OBJ File: ''
# www.blender.org
o Cube
v 0.500000 -0.500000 -0.500000
v 0.500000 -0.500000 0.500000
v -0.500000 -0.500000 0.500000
v -0.500000 -0.500000 -0.500000
v 0.447852 0.736795 -0.447851
v 0.447851 0.736795 0.447852
v -0.447852 0.736795 0.447851
v -0.447851 0.736795 -0.447852
v 0.500000 1.637977 -0.383341
v 0.500000 1.975728 0.354209
v -0.500000 1.975728 0.354208
v -0.500000 1.637977 -0.383342
v 0.500000 2.435776 -0.500000
v 0.500000 2.698301 0.500000
v -0.500000 2.698301 0.500000
v -0.500000 2.435776 -0.500000
v 0.437453 4.150644 -0.437453
v 0.437453 4.150644 0.437453
v -0.437453 4.150644 0.437453
v -0.437453 4.150644 -0.437453
v 0.328931 4.978292 -0.328930
v 0.328930 4.978292 0.328931
v -0.328931 4.978292 0.328930
v -0.328930 4.978292 -0.328930
v 0.358735 1.898359 1.134221
v -0.358737 1.898359 1.134221
v 0.358735 2.659113 1.134221
v -0.358737 2.659113 1.134221
v 0.358735 2.122473 1.696363
v -0.358737 2.122473 1.696362
v 0.358735 2.659113 1.845315
v -0.358737 2.659113 1.845314
v 0.310508 4.142940 1.182020
v -0.310509 4.142940 1.182020
v 0.310507 4.142940 1.797516
v -0.310510 4.142940 1.797516
v -0.500000 3.529192 0.500000
v -0.500000 3.113752 -0.335314
v 0.500000 3.113752 -0.335314
v 0.500000 3.529192 0.500000
v 0.393361 2.519985 -0.930023
v -0.393360 2.519985 -0.930023
v -0.393360 3.173663 -0.930023
v 0.393361 3.173663 -0.930023
v 0.175153 2.694414 -1.410273
v -0.175152 2.694414 -1.410273
v -0.393360 3.173663 -1.590638
v 0.393361 3.173663 -1.590638
v -0.393360 4.021330 -0.930023
v 0.393361 4.021330 -0.930023
v -0.393360 4.021330 -1.590638
v 0.393361 4.021330 -1.590638
v 0.334621 3.401026 1.158120
v 0.334621 3.401026 1.821415
v -0.334623 3.401026 1.158120
v -0.334624 3.401026 1.821415
v -0.253609 4.381015 -1.047373
v 0.253610 4.381015 -1.047373
v -0.253609 4.381015 -1.473288
v 0.253610 4.381015 -1.473288
vn 0.5881 -0.5552 -0.5881
vn 0.5881 -0.5552 0.5881
vn -0.5881 -0.5552 0.5881
vn -0.5881 -0.5552 -0.5881
vn -0.6919 0.0412 0.7208
vn 0.6919 0.0412 0.7208
vn 0.9134 -0.2552 0.3168
vn -0.9134 -0.2552 0.3168
vn 0.6940 0.0400 -0.7189
vn -0.6940 0.0400 -0.7189
vn 0.6240 -0.7639 0.1646
vn -0.6240 -0.7639 0.1646
vn 0.7398 -0.0484 -0.6710
vn -0.7398 -0.0484 -0.6710
vn -0.9146 0.2555 -0.3135
vn -0.7094 0.0676 0.7015
vn -0.7028 0.1509 0.6952
vn -0.6834 0.0762 -0.7260
vn 0.8574 -0.2953 -0.4216
vn 0.8885 0.2535 0.3823
vn -0.8885 0.2535 0.3823
vn -0.8574 -0.2953 -0.4216
vn 0.7028 0.1509 0.6952
vn 0.5403 0.6451 0.5403
vn -0.5403 0.6451 0.5403
vn 0.9146 0.2555 -0.3135
vn 0.6834 0.0762 -0.7260
vn 0.7094 0.0676 0.7015
vn 0.5403 0.6451 -0.5403
vn -0.5403 0.6451 -0.5403
vn -0.9088 0.3580 -0.2143
vn -0.6194 -0.5241 0.5844
vn -0.6790 -0.0767 0.7301
vn 0.9088 0.3580 -0.2143
vn 0.6194 -0.5241 0.5844
vn 0.6790 -0.0767 0.7301
vn 0.7064 0.0457 0.7064
vn 0.7064 0.0457 -0.7064
vn 0.5686 0.5943 -0.5687
vn 0.5686 0.5943 0.5687
vn -0.5686 0.5943 -0.5687
vn -0.5686 0.5943 0.5687
vn -0.7064 0.0457 -0.7064
vn -0.7064 0.0457 0.7064
vn -0.9277 0.2949 0.2290
vn -0.6518 -0.6938 -0.3060
vn 0.9277 0.2949 0.2290
vn 0.6951 0.2114 0.6871
vn -0.6951 0.2114 0.6871
vn 0.6518 -0.6938 -0.3060
vn 0.4098 -0.6487 -0.6413
vn -0.4098 -0.6487 -0.6413
vn -0.6749 -0.1671 -0.7188
vn 0.6749 -0.1671 -0.7188
vn 0.6951 0.2114 -0.6871
vn 0.4574 0.7478 -0.4812
vn 0.4574 0.7478 0.4812
vn -0.6951 0.2114 -0.6871
vn -0.4574 0.7478 0.4812
vn -0.4574 0.7478 -0.4812
s 1
f 1//1 2//2 3//3 4//4
f 7//5 6//6 10//7 11//8
f 1//1 5//9 6//6 2//2
f 2//2 6//6 7//5 3//3
f 3//3 7//5 8//10 4//4
f 5//9 1//1 4//4 8//10
f 11//8 10//7 25//11 26//12
f 6//6 5//9 9//13 10//7
f 8//10 7//5 11//8 12//14
f 5//9 8//10 12//14 9//13
f 38//15 37//16 19//17 20//18
f 10//7 9//13 13//19 14//20
f 12//14 11//8 15//21 16//22
f 9//13 12//14 16//22 13//19
f 19//17 18//23 22//24 23//25
f 39//26 38//15 20//18 17//27
f 37//16 40//28 18//23 19//17
f 40//28 39//26 17//27 18//23
f 21//29 24//30 23//25 22//24
f 18//23 17//27 21//29 22//24
f 20//18 19//17 23//25 24//30
f 17//27 20//18 24//30 21//29
f 28//31 26//12 30//32 32//33
f 15//21 11//8 26//12 28//31
f 10//7 14//20 27//34 25//11
f 14//20 15//21 28//31 27//34
f 30//32 29//35 31//36 32//33
f 54//37 53//38 33//39 35//40
f 25//11 27//34 31//36 29//35
f 26//12 25//11 29//35 30//32
f 33//39 34//41 36//42 35//40
f 53//38 55//43 34//41 33//39
f 55//43 56//44 36//42 34//41
f 56//44 54//37 35//40 36//42
f 14//20 13//19 39//26 40//28
f 15//21 14//20 40//28 37//16
f 16//22 38//15 43//45 42//46
f 16//22 15//21 37//16 38//15
f 43//45 44//47 50//48 49//49
f 39//26 13//19 41//50 44//47
f 13//19 16//22 42//46 41//50
f 38//15 39//26 44//47 43//45
f 45//51 46//52 47//53 48//54
f 42//46 43//45 47//53 46//52
f 44//47 41//50 45//51 48//54
f 41//50 42//46 46//52 45//51
f 50//48 52//55 60//56 58//57
f 44//47 48//54 52//55 50//48
f 47//53 43//45 49//49 51//58
f 48//54 47//53 51//58 52//55
f 32//33 31//36 54//37 56//44
f 28//31 32//33 56//44 55//43
f 27//34 28//31 55//43 53//38
f 31//36 27//34 53//38 54//37
f 57//59 58//57 60//56 59//60
f 49//49 50//48 58//57 57//59
f 51//58 49//49 57//59 59//60
f 52//55 51//58 59//60 60//56
